<svg height="512" viewBox="0 0 512 512" width="512" xmlns="http://www.w3.org/2000/svg"><g id="Solid"><path d="m331.528 160 40.423-96h-89.529l-21.984 14.656a8 8 0 0 1 -8.876 0l-21.984-14.656h-89.529l40.423 96z"/><path d="m232 208a16 16 0 0 0 0 32h16v-16a16.019 16.019 0 0 0 -16-16z"/><path d="m396.647 407.152-64.782-151.152h-11.865v-16h13.785a90.55 90.55 0 0 1 -.237-64h-155.1a90.55 90.55 0 0 1 -.237 64h13.789v16h-11.865l-36.9 86.091c6.454-3.242 14.425-6.091 27.045-6.091 16.372 0 24.929 4.792 32.479 9.021 6.688 3.745 12.464 6.979 24.661 6.979s17.974-3.234 24.662-6.98c7.549-4.228 16.106-9.02 32.478-9.02s24.938 4.793 32.489 9.021c6.688 3.745 12.465 6.979 24.661 6.979a43.373 43.373 0 0 0 15.5-2.469l5.578 15a58.8 58.8 0 0 1 -21.078 3.469c-16.371 0-24.928-4.791-32.478-9.019-6.69-3.746-12.468-6.981-24.672-6.981s-17.973 3.234-24.661 6.979c-7.549 4.229-16.107 9.021-32.479 9.021s-24.929-4.792-32.479-9.02c-6.688-3.746-12.463-6.98-24.661-6.98s-17.974 3.235-24.663 6.98a76.829 76.829 0 0 1 -12.1 5.79l-18.164 42.381a36.812 36.812 0 0 0 7.844 40.732l18.46 18.46a8 8 0 0 1 2.343 5.657v8a8.009 8.009 0 0 0 8 8h208a8.009 8.009 0 0 0 8-8v-8a8 8 0 0 1 2.343-5.657l18.46-18.46a36.81 36.81 0 0 0 7.844-40.731zm-116.647-151.152h-6.92l29.066 34.879-12.292 10.242-33.854-40.621-33.854 40.625-12.292-10.242 29.066-34.883h-6.92a32 32 0 1 1 24-53.132 31.991 31.991 0 1 1 24 53.132z"/><path d="m280 208a16.019 16.019 0 0 0 -16 16v16h16a16 16 0 0 0 0-32z"/></g></svg>