<?xml version="1.0" encoding="iso-8859-1"?>
<!-- Generator: Adobe Illustrator 19.0.0, SVG Export Plug-In . SVG Version: 6.00 Build 0)  -->
<svg version="1.1" id="Capa_1" xmlns="http://www.w3.org/2000/svg" xmlns:xlink="http://www.w3.org/1999/xlink" x="0px" y="0px"
	 viewBox="0 0 512.003 512.003" style="enable-background:new 0 0 512.003 512.003;" xml:space="preserve">
<g>
	<g>
		<path d="M65.6,234.76v232.237C65.6,491.812,85.788,512,110.602,512h79.321V234.76H65.6z"/>
	</g>
</g>
<g>
	<g>
		<rect x="219.921" y="234.76" width="72.153" height="277.242"/>
	</g>
</g>
<g>
	<g>
		<path d="M424.483,113.735h-69.125c4.174-3.201,8.163-6.683,11.927-10.446c0.799-0.799,1.585-1.606,2.358-2.422
			c25.887-27.341,18.823-62.254-1.534-82.611c-20.356-20.356-55.269-27.419-82.61-1.532c-0.816,0.773-1.625,1.56-2.422,2.357
			c-11.898,11.898-21.027,26.011-27.075,41.308c-6.048-15.296-15.177-29.408-27.072-41.304c-0.801-0.802-1.61-1.588-2.426-2.361
			c-27.341-25.888-62.253-18.824-82.61,1.532c-20.357,20.357-27.421,55.271-1.534,82.611c0.772,0.815,1.559,1.623,2.358,2.422
			c3.764,3.764,7.752,7.245,11.927,10.446H87.519c-24.814,0-45.002,20.188-45.002,45.002v9.181c0,16.583,9.031,31.075,22.419,38.882
			h382.131c13.387-7.806,22.418-22.299,22.418-38.882v-9.181C469.485,133.923,449.298,113.735,424.483,113.735z M234.537,108.9
			c-25.432,0.99-50.444-8.663-68.607-26.825c-0.001-0.001-0.002-0.003-0.003-0.004c-0.604-0.604-1.199-1.215-1.783-1.832
			c-14.29-15.092-8.412-31.394,0.963-40.769c5.333-5.334,12.908-9.534,21.228-9.534c6.303,0,13.036,2.413,19.54,8.571
			c0.617,0.584,1.228,1.179,1.836,1.787C225.872,58.456,235.504,83.465,234.537,108.9z M346.075,82.07
			c-0.001,0.001-0.002,0.003-0.003,0.004c-17.332,17.331-40.893,26.894-65.115,26.892c-1.163,0-2.326-0.021-3.491-0.066
			c-0.966-25.435,8.665-50.444,26.83-68.609c0.604-0.604,1.215-1.199,1.833-1.783c15.092-14.288,31.394-8.411,40.768,0.963
			c9.375,9.374,15.252,25.677,0.963,40.769C347.274,80.855,346.68,81.466,346.075,82.07z"/>
	</g>
</g>
<g>
	<g>
		<path d="M322.079,234.76V512h79.321c24.814,0,45.002-20.188,45.002-45.002V234.76H322.079z"/>
	</g>
</g>
<g>
</g>
<g>
</g>
<g>
</g>
<g>
</g>
<g>
</g>
<g>
</g>
<g>
</g>
<g>
</g>
<g>
</g>
<g>
</g>
<g>
</g>
<g>
</g>
<g>
</g>
<g>
</g>
<g>
</g>
</svg>
